<svg xmlns="http://www.w3.org/2000/svg" viewBox="0 0 64 64" fill="none" stroke="#4770ff" stroke-linecap="round" stroke-linejoin="round" stroke-width="2">
                            <path d="M36.214 36.773a15.982 15.982 0 0 1 1.12 5.894A15.86 15.86 0 0 1 32 54.56a15.814 15.814 0 0 1-10.666 4.107c-8.827 0-16-7.174-16-16 0-7.36 5.013-13.6 11.786-15.44" />
                            <path d="M46.88 27.227c6.773 1.84 11.787 8.08 11.787 15.44 0 8.826-7.174 16-16 16A15.814 15.814 0 0 1 32 54.56" />
                            <path d="M16 21.333a16 16 0 1 0 32 0 16 16 0 0 0-32 0Z" />
                        </svg>