<svg xmlns="http://www.w3.org/2000/svg" viewBox="0 0 64 64" fill="none" stroke="#4770ff" stroke-linecap="round" stroke-linejoin="round" stroke-width="2">
                            <path d="m49.621 47.333-10.4.715h-.072a36.88 36.88 0 0 0-9.925 2.208l-6.696 2.421a10.962 10.962 0 0 1-8.765-.576 10.188 10.188 0 0 1-5.28-6.738l-3.67-16.134a9.784 9.784 0 0 1 1.43-7.626 10.57 10.57 0 0 1 6.637-4.43l30-6.277c5.699-1.195 11.325 2.267 12.568 7.733l3.741 16.432a9.806 9.806 0 0 1-1.858 8.23 10.686 10.686 0 0 1-7.707 4.032v.005l-.003.005Z" />
                            <path d="M24 26.667 27.221 40l11.446-10.667L24 26.667Z" />
                        </svg>