<svg xmlns="http://www.w3.org/2000/svg" viewBox="0 0 64 64" fill="none" stroke="#4770ff" stroke-linecap="round" stroke-linejoin="round" stroke-width="2">
                            <path d="M13.333 18.667H16a5.334 5.334 0 0 0 5.333-5.334A2.667 2.667 0 0 1 24 10.667h16a2.667 2.667 0 0 1 2.667 2.666A5.333 5.333 0 0 0 48 18.667h2.667A5.334 5.334 0 0 1 56 24v24a5.333 5.333 0 0 1-5.333 5.333H13.333A5.333 5.333 0 0 1 8 48V24a5.333 5.333 0 0 1 5.333-5.333Z" />
                            <path d="M24 34.667a8 8 0 1 0 16 0 8 8 0 0 0-16 0Z" />
                        </svg>