<svg xmlns="http://www.w3.org/2000/svg" viewBox="0 0 64 64" fill="none" stroke="#4770ff" stroke-linecap="round" stroke-linejoin="round" stroke-width="2" >
                            <path d="M10.666 13.333a2.667 2.667 0 0 1 2.667-2.666h37.334a2.667 2.667 0 0 1 2.666 2.666v5.334a2.667 2.667 0 0 1-2.666 2.666H13.332a2.666 2.666 0 0 1-2.667-2.666v-5.334Zm0 21.334A2.667 2.667 0 0 1 13.333 32H24a2.667 2.667 0 0 1 2.666 2.667v16A2.667 2.667 0 0 1 24 53.333H13.333a2.666 2.666 0 0 1-2.667-2.666v-16ZM37.334 32h16m-16 10.667h16m-16 10.666h16" />
                        </svg>