<?xml version="1.0" encoding="iso-8859-1"?>
<!-- Generator: Adobe Illustrator 23.0.3, SVG Export Plug-In . SVG Version: 6.00 Build 0)  -->
<svg version="1.1" id="Layer_1" width="64px" height="64px" xmlns="http://www.w3.org/2000/svg" xmlns:xlink="http://www.w3.org/1999/xlink" x="0px" y="0px"
	 viewBox="0 0 50 50" style="enable-background:new 0 0 50 50;" xml:space="preserve">
<path style="fill:none;stroke:#4770ff;stroke-width:2;stroke-linecap:round;stroke-linejoin:round;" d="M38.871,11.004
	c-0.152,0-3.461-0.259-3.461-0.259s-2.299-2.357-2.577-2.59C32.731,8.052,32.605,8,32.504,8L30.66,47L44,44.048
	c0,0-4.674-32.422-4.699-32.655C39.199,11.159,39.023,11.056,38.871,11.004z"/>
<path style="fill:none;stroke:#4770ff;stroke-width:2;stroke-linecap:round;stroke-linejoin:round;" d="M26,18.637l-1.591,4.909
	c0,0-1.442-0.788-3.158-0.788c-2.561,0-2.686,1.653-2.686,2.06c0,2.238,5.719,3.103,5.719,8.367c0,4.146-2.561,6.816-6.018,6.816
	C14.089,40,12,37.355,12,37.355l1.119-3.764c0,0,2.188,1.933,4.028,1.933c1.218,0,1.716-0.966,1.716-1.679
	c0-2.925-4.675-3.052-4.675-7.884c0-4.044,2.835-7.96,8.579-7.96C24.906,17.975,26,18.637,26,18.637z"/>
<polyline style="fill:none;stroke:#4770ff;stroke-width:2;stroke-linecap:round;stroke-linejoin:round;" points="32.504,8 
	9.447,15.513 6,42.322 30.584,47 "/>
<path style="fill:none;stroke:#4770ff;stroke-width:2;" d="M15.485,13.018c1.694-6.182,5.013-10.521,7.78-9.929
	c1.829,0.392,2.996,2.848,3.292,6.298"/>
<path style="fill:none;stroke:#4770ff;stroke-width:2;" d="M29.542,8.308c-0.509-2.268-1.512-3.802-2.911-4.102
	C24.342,3.716,21.774,7.417,20,12"/>
</svg>